# File generated by IfcOpenShell v0.7.0-f0e03c79d
g product-40526b4b-35a7-43e2-a5b0-271573eb3344-body
s 1
v 5900.00200271606 6000 0
v 5900.00200271606 6000 3000
v 5900.00186459281 5780.00000000004 3000
v 5900.00186459281 5780.00000000004 0
v 5900.00186459281 5780.00000000004 0
v 5900.00186459281 5780.00000000004 3000
v 2999.99991778239 5780.00182071681 3000
v 2999.99991778239 5780.00182071681 0
v 2999.99991778239 5780.00182071681 0
v 2999.99991778239 5780.00182071681 3000
v 3000.00005590564 6000.00182071677 3000
v 3000.00005590564 6000.00182071677 0
v 3000.00005590564 6000.00182071677 0
v 3000.00005590564 6000.00182071677 3000
v 5900.00200271606 6000 3000
v 5900.00200271606 6000 0
v 5900.00200271606 6000 0
v 5900.00186459281 5780.00000000004 0
v 2999.99991778239 5780.00182071681 0
v 3000.00005590564 6000.00182071677 0
v 5900.00200271606 6000 3000
v 5900.00186459281 5780.00000000004 3000
v 2999.99991778239 5780.00182071681 3000
v 3000.00005590564 6000.00182071677 3000
vn 0.999999999999803 -6.27832946520233e-07 0
vn 0.999999999999803 -6.27832946520233e-07 0
vn 0.999999999999803 -6.27832946520233e-07 0
vn 0.999999999999803 -6.27832946520233e-07 0
vn -6.27832946520233e-07 -0.999999999999803 0
vn -6.27832946520233e-07 -0.999999999999803 0
vn -6.27832946520233e-07 -0.999999999999803 0
vn -6.27832946520233e-07 -0.999999999999803 0
vn -0.999999999999803 6.27832946520233e-07 0
vn -0.999999999999803 6.27832946520233e-07 0
vn -0.999999999999803 6.27832946520233e-07 0
vn -0.999999999999803 6.27832946520233e-07 0
vn 6.27832946520233e-07 0.999999999999803 0
vn 6.27832946520233e-07 0.999999999999803 0
vn 6.27832946520233e-07 0.999999999999803 0
vn 6.27832946520233e-07 0.999999999999803 0
vn 0 -0 -1
vn 0 -0 -1
vn 0 -0 -1
vn 0 -0 -1
vn 0 0 1
vn 0 0 1
vn 0 0 1
vn 0 0 1
usemtl IfcWall
f 4//4 1//1 2//2
f 4//4 2//2 3//3
f 8//8 5//5 6//6
f 8//8 6//6 7//7
f 12//12 9//9 10//10
f 12//12 10//10 11//11
f 16//16 13//13 14//14
f 16//16 14//14 15//15
f 18//18 19//19 20//20
f 18//18 20//20 17//17
f 24//24 23//23 22//22
f 21//21 24//24 22//22
g product-efa72aba-c030-4dba-8d3f-6107cb9f30f2-body
s 1
v 0 4000 0
v 0 4000 3000
v 0 4220 3000
v 0 4220 0
v 0 4220 0
v 0 4220 3000
v 4000 4220 3000
v 4000 4220 0
v 4000 4220 0
v 4000 4220 3000
v 4000 4000 3000
v 4000 4000 0
v 4000 4000 0
v 4000 4000 3000
v 0 4000 3000
v 0 4000 0
v 0 4000 0
v 0 4220 0
v 4000 4220 0
v 4000 4000 0
v 0 4000 3000
v 0 4220 3000
v 4000 4220 3000
v 4000 4000 3000
vn -1 0 0
vn -1 0 0
vn -1 0 0
vn -1 0 0
vn 0 1 0
vn 0 1 0
vn 0 1 0
vn 0 1 0
vn 1 0 0
vn 1 0 0
vn 1 0 0
vn 1 0 0
vn 0 -1 0
vn 0 -1 0
vn 0 -1 0
vn 0 -1 0
vn 0 0 -1
vn 0 0 -1
vn 0 0 -1
vn 0 0 -1
vn 0 0 1
vn 0 0 1
vn 0 0 1
vn 0 0 1
usemtl IfcWall
f 28//28 25//25 26//26
f 28//28 26//26 27//27
f 32//32 29//29 30//30
f 32//32 30//30 31//31
f 36//36 33//33 34//34
f 36//36 34//34 35//35
f 40//40 37//37 38//38
f 40//40 38//38 39//39
f 42//42 43//43 44//44
f 42//42 44//44 41//41
f 48//48 47//47 46//46
f 45//45 48//48 46//46
g product-2be8d39d-5ddc-49dc-ace4-0e31c45f7091-body
s 1
v 6000 -0.000238418579101562 0
v 6000 -0.000238418579101562 3000
v 5900 -0.000207026931775546 3000
v 5900 -0.000207026931775546 0
v 5900 -0.000207026931775546 0
v 5900 -0.000207026931775546 3000
v 5900.00188349845 5999.99852140718 3000
v 5900.00188349845 5999.99852140718 0
v 5900.00188349845 5999.99852140718 0
v 5900.00188349845 5999.99852140718 3000
v 6000.00188349844 5999.99849001554 3000
v 6000.00188349844 5999.99849001554 0
v 6000.00188349844 5999.99849001554 0
v 6000.00188349844 5999.99849001554 3000
v 6000 -0.000238418579101562 3000
v 6000 -0.000238418579101562 0
v 6000 -0.000238418579101562 0
v 5900 -0.000207026931775546 0
v 5900.00188349845 5999.99852140718 0
v 6000.00188349844 5999.99849001554 0
v 6000 -0.000238418579101562 3000
v 5900 -0.000207026931775546 3000
v 5900.00188349845 5999.99852140718 3000
v 6000.00188349844 5999.99849001554 3000
vn -3.13916473260163e-07 -0.999999999999951 0
vn -3.13916473260163e-07 -0.999999999999951 0
vn -3.13916473260163e-07 -0.999999999999951 0
vn -3.13916473260163e-07 -0.999999999999951 0
vn -0.999999999999951 3.13916473260163e-07 0
vn -0.999999999999951 3.13916473260163e-07 0
vn -0.999999999999951 3.13916473260163e-07 0
vn -0.999999999999951 3.13916473260163e-07 0
vn 3.13916473260163e-07 0.999999999999951 0
vn 3.13916473260163e-07 0.999999999999951 0
vn 3.13916473260163e-07 0.999999999999951 0
vn 3.13916473260163e-07 0.999999999999951 0
vn 0.999999999999951 -3.13916473260163e-07 0
vn 0.999999999999951 -3.13916473260163e-07 0
vn 0.999999999999951 -3.13916473260163e-07 0
vn 0.999999999999951 -3.13916473260163e-07 0
vn -0 0 -1
vn -0 0 -1
vn -0 0 -1
vn -0 0 -1
vn 0 0 1
vn 0 0 1
vn 0 0 1
vn 0 0 1
usemtl IfcWall
f 52//52 49//49 50//50
f 52//52 50//50 51//51
f 56//56 53//53 54//54
f 56//56 54//54 55//55
f 60//60 57//57 58//58
f 60//60 58//58 59//59
f 64//64 61//61 62//62
f 64//64 62//62 63//63
f 65//65 67//67 68//68
f 66//66 67//67 65//65
f 72//72 71//71 69//69
f 69//69 71//71 70//70
g product-fd4747cb-afcf-4001-af75-f88e01b29b6e-body
s 1
v 0.000389414367418794 9.28436201617228e-11 0
v 0.000389414367418794 9.28436201617228e-11 3000
v 0.000365572509508638 100.00000000009 3000
v 0.000365572509508638 100.00000000009 0
v 0.000365572509508638 100.00000000009 0
v 0.000365572509508638 100.00000000009 3000
v 5899.99951211475 100.001406669503 3000
v 5899.99951211475 100.001406669503 0
v 5899.99951211475 100.001406669503 0
v 5899.99951211475 100.001406669503 3000
v 5899.99953595661 0.00140666950606265 3000
v 5899.99953595661 0.00140666950606265 0
v 5899.99953595661 0.00140666950606265 0
v 5899.99953595661 0.00140666950606265 3000
v 0.000389414367418794 9.28436201617228e-11 3000
v 0.000389414367418794 9.28436201617228e-11 0
v 0.000389414367418794 9.28436201617228e-11 0
v 0.000365572509508638 100.00000000009 0
v 5899.99951211475 100.001406669503 0
v 5899.99953595661 0.00140666950606265 0
v 0.000389414367418794 9.28436201617228e-11 3000
v 0.000365572509508638 100.00000000009 3000
v 5899.99951211475 100.001406669503 3000
v 5899.99953595661 0.00140666950606265 3000
vn -0.999999999999972 -2.38418579101556e-07 0
vn -0.999999999999972 -2.38418579101556e-07 0
vn -0.999999999999972 -2.38418579101556e-07 0
vn -0.999999999999972 -2.38418579101556e-07 0
vn -2.38418579101556e-07 0.999999999999972 0
vn -2.38418579101556e-07 0.999999999999972 0
vn -2.38418579101556e-07 0.999999999999972 0
vn -2.38418579101556e-07 0.999999999999972 0
vn 0.999999999999972 2.38418579101556e-07 0
vn 0.999999999999972 2.38418579101556e-07 0
vn 0.999999999999972 2.38418579101556e-07 0
vn 0.999999999999972 2.38418579101556e-07 0
vn 2.38418579101556e-07 -0.999999999999972 0
vn 2.38418579101556e-07 -0.999999999999972 0
vn 2.38418579101556e-07 -0.999999999999972 0
vn 2.38418579101556e-07 -0.999999999999972 0
vn -0 0 -1
vn -0 0 -1
vn -0 0 -1
vn -0 0 -1
vn 0 0 1
vn 0 0 1
vn 0 0 1
vn 0 0 1
usemtl IfcWall
f 76//76 73//73 74//74
f 76//76 74//74 75//75
f 80//80 77//77 78//78
f 80//80 78//78 79//79
f 84//84 81//81 82//82
f 84//84 82//82 83//83
f 88//88 85//85 86//86
f 88//88 86//86 87//87
f 90//90 91//91 92//92
f 90//90 92//92 89//89
f 96//96 95//95 94//94
f 93//93 96//96 94//94
g product-338f8b9b-2deb-45f2-b268-a04632710a16-body
s 1
v 0.000187540308616008 4000 0
v 0.000187540308616008 4000 3000
v 100.000187540304 4000.00003139165 3000
v 100.000187540304 4000.00003139165 0
v 100.000187540304 4000.00003139165 0
v 100.000187540304 4000.00003139165 3000
v 100.001411814589 99.9999042350692 3000
v 100.001411814589 99.9999042350692 0
v 100.001411814589 99.9999042350692 0
v 100.001411814589 99.9999042350692 3000
v 0.00141181459424725 99.9998728434221 3000
v 0.00141181459424725 99.9998728434221 0
v 0.00141181459424725 99.9998728434221 0
v 0.00141181459424725 99.9998728434221 3000
v 0.000187540308616008 4000 3000
v 0.000187540308616008 4000 0
v 0.000187540308616008 4000 0
v 100.000187540304 4000.00003139165 0
v 100.001411814589 99.9999042350692 0
v 0.00141181459424725 99.9998728434221 0
v 0.000187540308616008 4000 3000
v 100.000187540304 4000.00003139165 3000
v 100.001411814589 99.9999042350692 3000
v 0.00141181459424725 99.9998728434221 3000
vn -3.13916473260163e-07 0.999999999999951 0
vn -3.13916473260163e-07 0.999999999999951 0
vn -3.13916473260163e-07 0.999999999999951 0
vn -3.13916473260163e-07 0.999999999999951 0
vn 0.999999999999951 3.13916473260163e-07 0
vn 0.999999999999951 3.13916473260163e-07 0
vn 0.999999999999951 3.13916473260163e-07 0
vn 0.999999999999951 3.13916473260163e-07 0
vn 3.13916473260163e-07 -0.999999999999951 0
vn 3.13916473260163e-07 -0.999999999999951 0
vn 3.13916473260163e-07 -0.999999999999951 0
vn 3.13916473260163e-07 -0.999999999999951 0
vn -0.999999999999951 -3.13916473260163e-07 0
vn -0.999999999999951 -3.13916473260163e-07 0
vn -0.999999999999951 -3.13916473260163e-07 0
vn -0.999999999999951 -3.13916473260163e-07 0
vn 0 0 -1
vn 0 0 -1
vn 0 0 -1
vn 0 0 -1
vn 0 0 1
vn 0 0 1
vn 0 0 1
vn 0 0 1
usemtl IfcWall
f 100//100 97//97 98//98
f 100//100 98//98 99//99
f 104//104 101//101 102//102
f 104//104 102//102 103//103
f 108//108 105//105 106//106
f 108//108 106//106 107//107
f 112//112 109//109 110//110
f 112//112 110//110 111//111
f 113//113 115//115 116//116
f 114//114 115//115 113//113
f 120//120 119//119 117//117
f 117//117 119//119 118//118
g product-0b556545-7b0d-4c18-a93f-37930c443619-body
s 1
v 3000 5780.00211715698 0
v 3000 5780.00211715698 3000
v 3099.99999999999 5780.00214854863 3000
v 3099.99999999999 5780.00214854863 0
v 3099.99999999999 5780.00214854863 0
v 3099.99999999999 5780.00214854863 3000
v 3100.00046459697 4300.00025421757 3000
v 3100.00046459697 4300.00025421757 0
v 3100.00046459697 4300.00025421757 0
v 3100.00046459697 4300.00025421757 3000
v 3000.00046459698 4300.00022282592 3000
v 3000.00046459698 4300.00022282592 0
v 3000.00046459698 4300.00022282592 0
v 3000.00046459698 4300.00022282592 3000
v 3000 5780.00211715698 3000
v 3000 5780.00211715698 0
v 3000 5780.00211715698 0
v 3099.99999999999 5780.00214854863 0
v 3100.00046459697 4300.00025421757 0
v 3000.00046459698 4300.00022282592 0
v 3000 5780.00211715698 3000
v 3099.99999999999 5780.00214854863 3000
v 3100.00046459697 4300.00025421757 3000
v 3000.00046459698 4300.00022282592 3000
vn -3.13916473260163e-07 0.999999999999951 0
vn -3.13916473260163e-07 0.999999999999951 0
vn -3.13916473260163e-07 0.999999999999951 0
vn -3.13916473260163e-07 0.999999999999951 0
vn 0.999999999999951 3.13916473260163e-07 0
vn 0.999999999999951 3.13916473260163e-07 0
vn 0.999999999999951 3.13916473260163e-07 0
vn 0.999999999999951 3.13916473260163e-07 0
vn 3.13916473260163e-07 -0.999999999999951 0
vn 3.13916473260163e-07 -0.999999999999951 0
vn 3.13916473260163e-07 -0.999999999999951 0
vn 3.13916473260163e-07 -0.999999999999951 0
vn -0.999999999999951 -3.13916473260163e-07 0
vn -0.999999999999951 -3.13916473260163e-07 0
vn -0.999999999999951 -3.13916473260163e-07 0
vn -0.999999999999951 -3.13916473260163e-07 0
vn 0 0 -1
vn 0 0 -1
vn 0 0 -1
vn 0 0 -1
vn 0 0 1
vn 0 0 1
vn 0 0 1
vn 0 0 1
usemtl IfcWall
f 124//124 121//121 122//122
f 124//124 122//122 123//123
f 128//128 125//125 126//126
f 128//128 126//126 127//127
f 132//132 129//129 130//130
f 132//132 130//130 131//131
f 136//136 133//133 134//134
f 136//136 134//134 135//135
f 137//137 139//139 140//140
f 138//138 139//139 137//137
f 144//144 143//143 141//141
f 141//141 143//143 142//142
g product-6068b4c8-b6f3-44ae-ab98-a837cdf46727-body
s 1
v 3000 4000 0
v 3000 4000 3000
v 3099.99999999999 4000.00003139165 3000
v 3099.99999999999 4000.00003139165 0
v 3099.99999999999 4000.00003139165 0
v 3099.99999999999 4000.00003139165 3000
v 3100.00113009926 400.000158548204 3000
v 3100.00113009926 400.000158548204 0
v 3100.00113009926 400.000158548204 0
v 3100.00113009926 400.000158548204 3000
v 3000.00113009926 400.000127156557 3000
v 3000.00113009926 400.000127156557 0
v 3000.00113009926 400.000127156557 0
v 3000.00113009926 400.000127156557 3000
v 3000 4000 3000
v 3000 4000 0
v 3000 4000 0
v 3099.99999999999 4000.00003139165 0
v 3100.00113009926 400.000158548204 0
v 3000.00113009926 400.000127156557 0
v 3000 4000 3000
v 3099.99999999999 4000.00003139165 3000
v 3100.00113009926 400.000158548204 3000
v 3000.00113009926 400.000127156557 3000
vn -3.13916473260163e-07 0.999999999999951 0
vn -3.13916473260163e-07 0.999999999999951 0
vn -3.13916473260163e-07 0.999999999999951 0
vn -3.13916473260163e-07 0.999999999999951 0
vn 0.999999999999951 3.13916473260163e-07 0
vn 0.999999999999951 3.13916473260163e-07 0
vn 0.999999999999951 3.13916473260163e-07 0
vn 0.999999999999951 3.13916473260163e-07 0
vn 3.13916473260163e-07 -0.999999999999951 0
vn 3.13916473260163e-07 -0.999999999999951 0
vn 3.13916473260163e-07 -0.999999999999951 0
vn 3.13916473260163e-07 -0.999999999999951 0
vn -0.999999999999951 -3.13916473260163e-07 0
vn -0.999999999999951 -3.13916473260163e-07 0
vn -0.999999999999951 -3.13916473260163e-07 0
vn -0.999999999999951 -3.13916473260163e-07 0
vn 0 0 -1
vn 0 0 -1
vn 0 0 -1
vn 0 0 -1
vn 0 0 1
vn 0 0 1
vn 0 0 1
vn 0 0 1
usemtl IfcWall
f 148//148 145//145 146//146
f 148//148 146//146 147//147
f 152//152 149//149 150//150
f 152//152 150//150 151//151
f 156//156 153//153 154//154
f 156//156 154//154 155//155
f 160//160 157//157 158//158
f 160//160 158//158 159//159
f 162//162 163//163 164//164
f 162//162 164//164 161//161
f 168//168 167//167 166//166
f 165//165 168//168 166//166
